<svg height="3188.901983" viewBox="0 0 3140.49546733 3188.901983" width="3140.495467" xmlns="http://www.w3.org/2000/svg" xmlns:xlink="http://www.w3.org/1999/xlink"><linearGradient id="a"><stop offset="0" stop-color="#8f5e25"/><stop offset=".5" stop-color="#fbf4a1"/><stop offset="1" stop-color="#8f5e25"/></linearGradient><path d="m0 0h3140.495467v3188.901983h-3140.495467z"/><g fill="url(#a)"><g transform="matrix(15.86636898068 0 0 15.86636898068 94.4565258281 94.45373007875)"><path d="m22.657 154.94a90.586 90.586 0 0 0 5.861 6.251c6.914 6.805 15.159 12.525 24.004 16.851 3.259 1.526 6.265 3.107 9.787 4.468.88.338 1.779.7 2.724 1.026.953.302 1.941.604 2.974.903 1.027.321 2.122.549 3.267.786 1.146.23 2.336.493 3.614.624a91.24 91.24 0 0 1 -18.434-5.99 93.833 93.833 0 0 1 -16.873-9.842c-10.548-7.727-19.57-17.648-26.16-28.989-.272-.339-.685-.985-1.18-1.808l-.796-1.348-.803-1.551c-.534-1.076-1.149-2.168-1.62-3.226a71.281 71.281 0 0 0 -1.326-2.748c2.048 5.101 4.412 9.563 7.059 13.806a93.473 93.473 0 0 0 3.869 5.697c-.192-.259-.392-.511-.583-.771a95.012 95.012 0 0 0 4.6 5.841zm-4.618-5.862-.125-.17zm-16.704-43.036-.483-3.875c.256 2.365.553 5.008 1.096 7.654l-.327-1.879a23.961 23.961 0 0 1 -.286-1.9zm84.477 79.533c6.652.673 13.628.472 20.461-.609 6.837-1.077 13.524-2.987 19.741-5.449-11.45 4.503-23.602 6.506-35.49 6.171-1.591-.025-3.159 0-4.712-.113z" xmlns="http://www.w3.org/2000/svg"/><path d="m46.426 171.967-.259-.165c.087.055.172.111.259.165zm9.651 5.317a83.837 83.837 0 0 0 17.123 5.816c-9.688-2.21-18.805-6.109-26.774-11.133 3.06 1.947 6.277 3.749 9.651 5.317zm120.925-70.19c.098-1.58.296-3.238.346-4.027.594-5.071.77-9.401.745-13.745-.11-.783-.425-2.25-.55-3.918-.153-1.672-.378-3.309-.568-4.924-.289-1.601-.538-3.186-.854-4.74 2.275 11.617 2.237 23.279.144 34.282a94.97 94.97 0 0 1 .737-2.928z" xmlns="http://www.w3.org/2000/svg"/><path d="m.887 83.482c.848-6.9 2.653-13.626 4.37-18.107l-.695 3.28c.429-.961 1.122-3.194 2.067-5.557l.682-1.802.753-1.747c.5-1.131.92-2.203 1.363-3.025-.303.771-.595 1.602-.947 2.436-.345.837-.732 1.687-1.101 2.542l1.514-3.409a111.863 111.863 0 0 0 -3.939 11.707c-1.133 4.352-2.029 8.926-2.511 13.032-.14 1.024-.189 2.024-.28 2.978-.067.954-.183 1.864-.192 2.724-.042 1.719-.1 3.224-.071 4.428.105 2.409.25 3.61.459 2.939.411-1.333.403-8.188 1.837-16.767.767-4.276 1.868-8.966 3.362-13.561 1.483-4.599 3.427-9.058 5.44-12.992l-.592 1.292-.545 1.331-1.116 2.691-1.024 2.78-.521 1.402c-.153.476-.308.954-.461 1.434-1.32 3.807-2.307 7.816-3.167 11.857l-.559 3.052c-.205 1.014-.292 2.046-.444 3.067-.318 2.041-.434 4.097-.611 6.129-.199 4.074-.239 8.098.13 11.946-.015-.914-.03-1.726-.017-2.512l.115-2.355c.048-.809.039-1.667.115-2.65.07-.983.134-2.091.19-3.402.391-6.608 1.572-13.15 3.408-19.481 1.75-6.358 3.814-11.957 6.889-17.03l.801-1.526c.542-1.024.993-2.034 1.566-3.064.653-1.13 1.278-1.976 1.784-2.751.521-.767.963-1.441 1.469-2.095l3.682-5.082c.075-.009-.022.185-.2.473a28.962 28.962 0 0 1 1.959-2.49c.755-.875 1.488-1.803 2.109-2.569.146-.007.288-.011.623-.251 8.65-9.197 19.295-16.692 31.291-21.417l2.667-1.039 2.7-.899 1.343-.448 1.36-.38 2.71-.753c1.55-.373 3.12-.751 4.721-1.091l2.437-.426c.819-.141 1.642-.3 2.484-.378 1.674-.201 3.134-.625 3.921-.729 4.369-.249 8.73-.199 13.849.216.397.007 1.015.043 1.732.082.717.041 1.537.061 2.332.134.932.21 1.927.418 2.971.621 6.369.988 12.527 2.754 18.386 5.103l-.007-.028 2.244.894 2.29 1.058c1.571.684 3.11 1.559 4.7 2.383.798.407 1.554.904 2.338 1.354.77.474 1.576.894 2.32 1.412 1.508 1.002 3.037 1.961 4.446 3.032a99.912 99.912 0 0 1 6.6 5.198c.046.042.094.081.14.122l.042.038 1.457 1.322 1.394 1.391 1.395 1.392c.462.467.89.967 1.337 1.449-.216-.35-.208-.491-.2-.63-.689-.66-1.504-1.441-2.309-2.21 1.343 1.222 2.515 2.327 3.477 3.229.371.474.776.94 1.16 1.449l1.186 1.566 1.261 1.629 1.255 1.752c2.226 2.838 4.191 5.874 6.057 8.97.864 1.588 1.817 3.131 2.586 4.774l1.213 2.436 1.092 2.497c.314.533.192.022.231-.068 1.225 2.962 2.21 6.042 3.102 9.146a88.212 88.212 0 0 1 3.408 17.211c.225 1.378.321 2.772.52 4.153l-.123 2.924c-.001 1.103.057 2.206.01 3.311l-.128 3.326c-.016.75-.124 1.569-.187 2.459-.084.888-.128 1.846-.256 2.856l-.412 3.192c-.132 1.119-.387 2.269-.583 3.471a90.635 90.635 0 0 1 -4.312 15.482c-.242.826-.427 1.486-.592 1.855-.627 1.501-1.296 2.954-1.942 4.385-.723 1.394-1.386 2.788-2.127 4.108a86.09 86.09 0 0 1 -7.949 12.379c-.336.439-.649.885-.987 1.297l-.998 1.206c-.66.779-1.25 1.558-1.876 2.234-1.251 1.352-2.301 2.606-3.286 3.549-1.128 1.178-1.027 1.233-.246.665a35.07 35.07 0 0 0 1.608-1.262l2.122-1.914c.776-.677 1.519-1.441 2.235-2.161.708-.725 1.416-1.386 1.962-1.984 1.101-1.191 1.824-1.926 1.67-1.599-1.777 3.345-5.013 7.471-9.743 12.035-2.413 2.227-5.128 4.647-8.339 6.98-1.566 1.221-3.307 2.338-5.082 3.558-1.834 1.123-3.708 2.353-5.757 3.445-4.484 2.442 3.365-1.475 3.577-1.512a22.87 22.87 0 0 1 -2.377 1.64c-1.478.786-2.943 1.597-4.474 2.273-.895.411-1.774.855-2.679 1.239l-2.729 1.122 1.444-.568c2.952-1.173 5.711-2.555 8.202-3.922-.936.566-1.96 1.221-3.082 1.812-1.203.622-2.448 1.302-3.697 1.909l-3.625 1.686c12.968-4.711 24.885-12.507 34.319-22.67 4.723-5.066 8.935-10.631 12.369-16.651a93.904 93.904 0 0 0 8.288-18.999c-3.154 9.93-8.071 19.052-13.981 26.765 10.744-14.507 17.15-32.293 17.999-50.636-.001 1.011-.101 2.018-.168 3.025-.083 1.007-.123 2.018-.241 3.022-.257 2.005-.441 4.021-.827 6.009-.624 4-1.636 7.931-2.782 11.815 2.262-7.021 3.613-14.424 4.145-21.869.554-7.451.092-14.947-1.057-22.211 1.974 9.622 2.301 20.524.619 31.298 1.182-6.949 1.482-14.112 1.028-21.214-.102-2.713-.422-5.407-.685-7.901-.377-2.476-.662-4.762-1.027-6.611 1.445 6.826 2.015 12.648 2.293 18.136-.267-11.977-2.748-24.112-7.62-35.511 2.659 6.191 4.842 12.851 6.175 19.698 1.34 6.84 1.897 13.838 1.58 20.57-.015-.788.018-1.575-.028-2.366l-.107-2.391c.287 10.85-1.384 21.604-4.696 31.717-1.662 5.056-3.715 9.969-6.2 14.644a95.521 95.521 0 0 1 -8.56 13.316c3.673-4.29 7.551-10.354 10.646-17.015 3.081-6.675 5.368-13.894 6.941-20.199-2.314 11.322-6.907 22.494-13.571 32.471-6.646 9.985-15.351 18.764-25.423 25.502-10.06 6.759-21.474 11.437-33.187 13.748a94.608 94.608 0 0 1 -17.657 1.809 94.462 94.462 0 0 1 -17.361-1.515l3.005.571c1.002.19 2.018.295 3.026.445 2.016.324 4.055.446 6.087.633 4.073.229 8.168.306 12.25-.005 4.089-.217 8.152-.827 12.196-1.572 2.006-.456 4.036-.829 6.017-1.414.994-.278 2-.521 2.987-.83l2.955-.958c-1.492.462-3.062 1.074-4.739 1.523l-2.101.618a91.772 91.772 0 0 0 12.91-4.496 89.46 89.46 0 0 0 5.651-2.705 96.653 96.653 0 0 1 -10.714 4.872 98.407 98.407 0 0 1 -21.66 5.382c-1.11.176-2.122.231-3.029.326l-2.428.24c-1.429.113-2.484.164-3.222.245-1.477.147-1.687.284-1.099.397.587.113 1.971.203 3.673.251 1.697-.01 3.71-.101 5.541-.268 18.397-1.887 35.288-9.107 48.824-19.916 13.545-10.811 23.919-25.172 29.701-41.467.363-.946.642-1.922.944-2.89.293-.971.617-1.932.882-2.912.491-1.97 1.072-3.917 1.448-5.917l.619-2.985.487-3.012.241-1.507.172-1.517.342-3.034c.698-8.114.422-16.315-.812-24.363-.66-4.554-1.82-9.961-3.315-14.777l-1.15-3.484c-.4-1.107-.825-2.151-1.203-3.133l-.557-1.415-.571-1.271-.981-2.124c-3.134-6.359-7.072-12.424-11.682-18.065-4.605-5.643-9.896-10.868-15.861-15.418l-2.244-1.703-2.327-1.608-1.166-.806-1.203-.756-2.417-1.508c-3.295-1.904-6.67-3.739-10.228-5.261-3.521-1.598-7.206-2.895-10.957-4.055-1.895-.52-3.781-1.1-5.724-1.499-.968-.209-1.928-.463-2.907-.638l-2.944-.521c-7.04-1.239-14.363-1.534-21.679-.984-7.312.565-14.655 1.953-21.696 4.349l-2.635.913c-.881.297-1.73.682-2.597 1.019-.858.359-1.735.673-2.577 1.069l-2.532 1.173c-.852.376-1.675.808-2.496 1.245l-2.469 1.297-2.402 1.412c-.8.472-1.606.933-2.372 1.458l-2.324 1.528c-.782.497-1.506 1.078-2.261 1.612-.741.554-1.51 1.07-2.226 1.654l-2.157 1.737c-.729.565-1.417 1.178-2.103 1.792l-2.063 1.83-1.971 1.919c-.656.639-1.319 1.271-1.93 1.951-5.031 5.298-9.451 11.078-13.066 17.194a99.518 99.518 0 0 0 -8.667 18.962c-4.375 12.92-5.63 26.023-5.046 37.858-.126-4.872-.147-11.859.753-18.755zm141.132 90.446a96.807 96.807 0 0 0 8.765-6.389c-2.84 2.339-5.758 4.499-8.765 6.389zm40.217-54.282c-.299.901-.552 1.791-.882 2.641l-.957 2.523-.466 1.248-.513 1.231a108.54 108.54 0 0 0 -.997 2.501 97.307 97.307 0 0 1 -6.587 13.35c-2.521 4.275-5.443 8.281-8.565 12.04-1.542 1.899-3.222 3.66-4.874 5.421l-2.581 2.523c-.847.848-1.774 1.604-2.652 2.404-.736.64-1.478 1.266-2.225 1.882a90.696 90.696 0 0 0 7.896-7.312 89.808 89.808 0 0 1 -11.689 10.188c-1.036.722-2.037 1.496-3.113 2.176l-3.247 2.069-3.43 1.949c-1.167.648-2.399 1.224-3.634 1.855a74.206 74.206 0 0 1 2.685-1.508c1.021-.567 2.092-1.237 3.138-1.85 1.054-.601 2.012-1.261 2.808-1.813s1.42-1.01 1.745-1.306c-.464.315-.936.617-1.406.924a92.477 92.477 0 0 0 1.507-1.015c-.021.023-.065.059-.101.091 10.932-7.466 20.245-17.277 27.223-28.462 7.009-11.175 11.57-23.781 13.46-36.601-.41 5.142-1.352 9.248-2.543 12.851zm-15.102-78.05a92.37 92.37 0 0 1 7.773 14.352c.25.549.486 1.106.719 1.664 4.963 12.154 7.221 25.192 6.89 38.036.084-4.25-.198-8.498-.669-12.71-.533-4.854-1.518-9.65-2.824-14.341-2.562-9.407-6.723-18.323-12.005-26.451.485.67.996 1.396 1.525 2.166a32.826 32.826 0 0 1 1.59 2.463l-.638-1.109-.689-1.079-1.378-2.156c-.938-1.424-1.955-2.796-2.934-4.192-1.062-1.334-2.069-2.712-3.174-4.011-.836-.953-1.637-1.938-2.485-2.879 2.992 3.155 5.801 6.54 8.299 10.247zm-70.248-40.444c1.467.078 2.937.221 4.407.331 1.204.101 2.402.279 3.588.413.356.015.732.039 1.204.092.471.065 1.034.186 1.769.354 5.469.912 10.459 2.283 14.001 3.699 6.798 2.573 13.123 5.774 18.86 9.471 5.739 3.69 10.889 7.887 15.246 12.471 2.008 2.179 1.422 1.704.315.646l1.662 1.764c-.736-.734-1.459-1.478-2.206-2.196l-2.301-2.09c.56.49 1.918 1.663 2.845 2.522-7.389-7.539-16.026-13.799-25.375-18.404-9.356-4.603-19.431-7.446-29.502-8.581 1.618.18 2.412.22 3.168.24-1.085-.127-2.173-.301-3.274-.401-1.479-.097-2.955-.229-4.423-.301l-4.36-.103c1.444-.001 2.907.039 4.376.073z" xmlns="http://www.w3.org/2000/svg"/><path d="m115.942 184.69.426-.125c-.446.12-.885.252-1.334.366.304-.076.609-.15.908-.241zm44.482-38.539c4.235-5.587 7.977-12.263 10.366-18.014l-.029.006c-6.061 14.322-15.892 26.66-28.16 35.744a159.12 159.12 0 0 0 6.418-4.703c2.698-2.82 7.213-7.406 11.405-13.033zm-125.074 16.695c7.172 6.412 15.821 11.992 25.448 15.751 3.754 1.413 7.585 2.651 11.503 3.523 1.944.502 3.929.812 5.899 1.181.987.175 1.987.272 2.979.412.994.129 1.986.275 2.987.333-4.519-.501-9.005-1.251-13.372-2.44-4.364-1.185-8.642-2.65-12.769-4.449a97.4 97.4 0 0 1 -11.894-6.314c-3.786-2.408-7.376-5.097-10.781-7.997zm88.527 11.431-2.219.871-2.266.756c-1.5.54-3.047.944-4.59 1.373 1.551-.39 3.111-.754 4.624-1.254l2.283-.698 2.23-.815c-.086-.044-.594.055-.062-.233zm-26.194 5.688c-1.16.099-2.326.09-3.494.102-1.168.014-2.338.039-3.509-.038l1.576.148c.482.031.916.068 1.295.113 1.381-.118 2.752-.151 4.132-.325zm-46.242-10.756c1.341.787 2.765 1.48 4.178 2.244.354.194.996.415 1.801.709-1.721-.739-3.37-1.655-5.046-2.505-.83-.441-1.629-.935-2.443-1.395-.812-.464-1.621-.927-2.389-1.445l.937.626.977.584z" xmlns="http://www.w3.org/2000/svg"/></g><g transform="matrix(18.74002726838 0 0 18.74002726838 1095.64399676618 704.55288251924)"><path d="m17.148 39.523c-.37 0-.66-.291-.66-.659 0-.357.29-.647.66-.647.355 0 .66.29.66.647-.001.368-.305.659-.66.659zm-2.243 0c-.37 0-.66-.291-.66-.659 0-.357.29-.647.66-.647.356 0 .659.29.659.647 0 .368-.303.659-.659.659zm-2.243 0c-.368 0-.66-.291-.66-.659 0-.357.292-.647.66-.647.357 0 .66.29.66.647 0 .368-.303.659-.66.659zm-2.243 0c-.369 0-.66-.291-.66-.659 0-.357.291-.647.66-.647.357 0 .66.29.66.647 0 .368-.303.659-.66.659zm-2.242 0c-.37 0-.66-.291-.66-.659 0-.357.29-.647.66-.647.355 0 .66.29.66.647 0 .368-.304.659-.66.659zm-2.242 0c-.37 0-.66-.291-.66-.659 0-.357.29-.647.66-.647.355 0 .66.29.66.647-.001.368-.305.659-.66.659zm-2.243 0c-.37 0-.659-.291-.659-.659 0-.357.29-.647.659-.647.357 0 .66.29.66.647-.001.368-.303.659-.66.659z" xmlns="http://www.w3.org/2000/svg"/><path d="m17.689 37.333c-.027 0-.119-.013-.133-.013-.355-.093-.58-.436-.514-.792.079-.303.342-.514.646-.514.026 0 .119 0 .145.013.356.08.581.422.501.778-.066.317-.329.528-.645.528zm-2.19-.489c-.027 0-.119 0-.146-.013-.355-.08-.58-.436-.501-.778.08-.316.343-.527.647-.527.026 0 .119.013.146.013.355.08.58.436.501.792-.068.303-.33.513-.647.513zm-2.19-.474c-.026 0-.119-.014-.131-.014-.37-.093-.581-.435-.516-.79.08-.305.344-.516.647-.516.027 0 .118.014.146.014.355.079.58.422.501.778-.066.318-.33.528-.647.528zm-2.19-.488c-.026 0-.119 0-.145-.013-.357-.079-.581-.436-.502-.778.08-.317.344-.528.647-.528.027 0 .118.014.146.027.171.025.317.131.408.276.093.146.133.33.093.501-.067.305-.343.515-.647.515zm-2.191-.475c-.013 0-.105-.013-.118-.013-.383-.08-.607-.436-.527-.792.079-.303.343-.515.646-.515.027 0 .12.014.146.014.356.079.581.435.501.777-.066.318-.331.529-.648.529zm-2.188-.476c-.027 0-.12-.013-.146-.025-.171-.027-.317-.133-.41-.277-.091-.159-.131-.329-.091-.501.066-.304.343-.528.647-.528.025 0 .118.014.144.026.357.08.581.436.501.779-.065.303-.33.526-.645.526zm-2.19-.488c-.027 0-.119-.013-.146-.013-.355-.078-.581-.436-.501-.791.066-.304.343-.515.647-.515.025 0 .118.014.144.014.357.079.581.435.501.791-.065.29-.342.514-.645.514zm-2.19-.474c-.027 0-.118-.014-.146-.014-.355-.092-.58-.435-.501-.791.066-.303.33-.515.646-.515.026 0 .119.013.145.013.357.079.581.423.502.778-.079.319-.344.529-.646.529z" xmlns="http://www.w3.org/2000/svg"/><path d="m16.158 34.748c-.119 0-.237-.027-.343-.093-.304-.185-.41-.594-.238-.896.186-.317.607-.423.911-.237.317.185.423.58.237.896-.118.211-.342.33-.567.33zm-1.939-1.135c-.12 0-.238-.026-.33-.092-.317-.186-.423-.594-.239-.898.171-.303.594-.421.898-.236.316.184.421.594.237.896-.117.211-.341.33-.566.33zm-1.939-1.134c-.119 0-.237-.027-.33-.093-.315-.185-.421-.581-.237-.896.171-.305.594-.41.896-.238.159.093.264.238.304.409.053.172.026.343-.066.501-.119.197-.329.317-.567.317zm-1.939-1.122c-.119 0-.224-.04-.33-.093-.316-.185-.422-.593-.237-.91.171-.304.607-.409.896-.236.159.091.264.236.317.408.04.171.013.343-.08.501-.105.198-.33.33-.566.33zm-1.939-1.134c-.119 0-.224-.04-.33-.093-.146-.093-.264-.237-.304-.41-.039-.171-.013-.342.066-.501.172-.29.594-.408.911-.224.146.08.251.224.304.396.039.172.013.356-.067.502-.119.198-.343.33-.58.33zm-1.926-1.134c-.119 0-.238-.027-.344-.093-.144-.079-.25-.225-.303-.396-.04-.172-.013-.355.079-.501.173-.305.594-.423.898-.237.145.091.264.237.303.408.04.171.027.343-.065.488-.12.198-.331.331-.568.331zm-1.94-1.136c-.119 0-.237-.025-.343-.091-.303-.186-.409-.581-.224-.898.171-.303.594-.421.896-.236.159.093.264.236.304.408.053.171.025.344-.066.501-.118.198-.329.316-.567.316zm-1.939-1.12c-.119 0-.224-.04-.33-.093-.158-.093-.264-.237-.303-.408-.053-.172-.027-.345.066-.502.171-.291.594-.409.896-.238.317.186.423.595.237.911-.118.197-.329.33-.566.33zm-1.939-1.135c-.119 0-.224-.04-.33-.092-.317-.186-.423-.581-.237-.897.185-.317.593-.422.897-.25.317.196.422.592.25.909-.132.198-.343.33-.58.33z" xmlns="http://www.w3.org/2000/svg"/><path d="m19.509 35.236c-.198 0-.382-.08-.501-.225-.238-.291-.199-.699.079-.937.277-.224.699-.186.923.079.237.276.199.699-.079.937-.119.093-.263.146-.422.146zm-1.437-1.715c-.199 0-.383-.093-.501-.238-.12-.132-.172-.303-.158-.488.013-.172.091-.33.237-.448.264-.225.7-.185.924.093.237.277.197.686-.08.924-.12.105-.278.157-.422.157zm-1.438-1.728c-.198 0-.382-.079-.502-.237-.237-.277-.197-.687.067-.924.277-.224.713-.185.937.079.237.291.197.699-.08.923-.12.106-.265.159-.422.159zm-1.439-1.715c-.197 0-.382-.093-.501-.237-.237-.277-.197-.699.08-.924.277-.238.698-.186.923.079.12.133.172.304.158.475-.026.185-.105.343-.237.449-.119.105-.265.158-.423.158zm-1.438-1.729c-.197 0-.383-.079-.501-.225-.237-.29-.198-.698.08-.937.277-.225.698-.185.922.08.238.276.199.698-.079.937-.118.092-.264.145-.422.145zm-1.438-1.714c-.198 0-.382-.092-.501-.237-.119-.132-.171-.304-.158-.488.013-.171.105-.33.237-.448.264-.211.7-.185.924.093.237.276.198.698-.079.922-.119.105-.264.158-.423.158zm-1.437-1.728c-.198 0-.383-.08-.501-.238-.238-.277-.199-.686.079-.923.277-.224.699-.186.923.079.119.146.171.316.159.488-.013.171-.106.329-.237.448-.121.093-.265.146-.423.146zm-1.438-1.715c-.199 0-.383-.08-.501-.238-.238-.277-.198-.686.066-.924.29-.237.712-.185.937.08.237.276.197.686-.08.924-.119.105-.264.158-.422.158zm-1.438-1.716c-.198 0-.382-.092-.515-.25-.224-.265-.184-.687.093-.924.264-.225.699-.185.924.078.237.278.197.7-.08.938-.119.092-.265.158-.422.158zm-1.439-1.727c-.197 0-.382-.093-.501-.237-.119-.133-.171-.304-.159-.476.014-.184.106-.343.239-.448.264-.237.698-.198.923.079.119.132.171.304.157.475-.013.185-.105.343-.237.448-.118.106-.263.159-.422.159zm-1.437-1.728c-.197 0-.383-.08-.501-.226-.237-.277-.197-.698.08-.937.277-.225.698-.185.922.08.238.289.198.699-.079.937-.119.094-.264.146-.422.146zm-1.438-1.716c-.198 0-.382-.092-.501-.237-.119-.132-.171-.304-.158-.476.013-.184.105-.343.237-.448.277-.224.7-.197.924.08.238.277.211.685-.079.922-.119.106-.265.159-.423.159z" xmlns="http://www.w3.org/2000/svg"/><path d="m20.446 32.439c-.264 0-.501-.158-.607-.396-.08-.172-.08-.344-.013-.516.066-.158.197-.29.355-.355.304-.133.726.013.858.343.079.158.079.343.013.501-.066.172-.185.304-.357.37-.065.026-.171.053-.249.053zm-.897-2.058c-.264 0-.502-.157-.607-.396-.067-.158-.067-.343-.014-.501.066-.172.199-.303.357-.37.317-.131.725.015.871.344.144.33-.015.713-.344.87-.039.014-.21.053-.263.053zm-.898-2.058c-.264 0-.501-.158-.607-.396-.144-.33.013-.726.343-.871.053-.013.226-.053.264-.053.264 0 .501.159.607.396.065.159.08.343.014.501-.067.172-.199.292-.357.37-.078.026-.171.053-.264.053zm-.884-2.058c-.264 0-.501-.158-.607-.396-.146-.343.013-.726.343-.871.317-.144.727.027.858.345.079.158.079.342.013.501-.066.171-.185.303-.356.369-.079.039-.171.052-.251.052zm-.896-2.058c-.264 0-.501-.158-.607-.396-.066-.158-.08-.343-.013-.501.065-.171.197-.304.368-.369.277-.132.712.013.858.342.066.159.066.345.013.502-.066.172-.197.304-.355.369-.08.04-.171.053-.264.053zm-.897-2.057c-.264 0-.502-.159-.608-.397-.065-.157-.065-.343 0-.501.053-.171.186-.29.344-.368.33-.133.738.025.871.343.066.158.079.343.013.501-.065.171-.186.29-.356.37-.08.037-.172.052-.264.052zm-.885-2.058c-.263 0-.501-.159-.607-.396-.144-.33.014-.726.344-.871.039-.013.21-.053.263-.053.264 0 .502.158.594.396.08.158.08.344.013.502-.066.172-.185.303-.343.369-.092.039-.171.053-.264.053zm-.896-2.058c-.264 0-.501-.158-.607-.396-.066-.158-.066-.344-.013-.503.065-.171.197-.289.355-.368.04-.014.224-.053.264-.053.264 0 .501.158.606.408.066.146.066.33.013.488-.066.172-.197.305-.355.37-.079.041-.171.054-.263.054zm-.897-2.059c-.264 0-.501-.159-.606-.396-.066-.159-.066-.343 0-.501.065-.171.184-.29.355-.37.304-.131.725.027.858.344.079.157.079.342.013.501-.065.171-.184.303-.355.369-.081.04-.174.053-.265.053z" xmlns="http://www.w3.org/2000/svg"/><path d="m22.094 34.247c-.027 0-.133 0-.146-.015-.368-.092-.58-.434-.501-.791.065-.303.33-.514.646-.514.026 0 .119.013.146.025.355.08.58.436.487.793-.065.29-.329.502-.632.502zm.501-2.178c-.025 0-.118-.013-.146-.013-.355-.093-.58-.448-.501-.805.08-.29.343-.502.646-.502.026 0 .132.014.146.014.355.079.58.436.501.792-.064.303-.328.514-.646.514zm.515-2.189c-.026 0-.119-.014-.144-.014-.357-.078-.581-.435-.501-.79.066-.305.33-.516.646-.516.027 0 .12.014.146.027.171.025.317.131.409.289.093.146.12.317.08.488-.068.304-.332.516-.636.516z" xmlns="http://www.w3.org/2000/svg"/><path d="m35.994 40.948h14.406s-.937-10.93-6.626-17.975c-1.354-2.117-5.578-3.429-8.207-.68.027-.115.053-.232.069-.335.213-1.298-.807-3.598-1.853-5.576l1.408-1.103-1.676-2.14-1.074.842c-.208-.355-.384-.657-.501-.87-.869-1.562-1.817-2.498-4.543-2.295-5.577.416-7.517 4.327-7.958 5.888-.581 2.051.805 3.896.805 3.896l1.228 1.358 3.959-3.101 1.675 2.14-3.809 2.982 4.794 5.307c1.81.42 3.319-.329 4.508-1.51-.933 2.405-1.739 5.094-2.275 7.261l1.906 2.859c.202.303.12.713-.183.915-.112.074-.239.11-.366.11-.212 0-.421-.103-.549-.294l-1.807-2.711c-2.122.009-7.779.033-7.78.033-1.365 0-2.473 1.104-2.476 2.471-.002 1.368 1.104 2.478 2.471 2.48l12.897.046 5.828-13.126c.163-.354.581-.51.937-.35.356.163.513.583.35.938zm-6.28-25.162c-.428-.04-.742-.417-.701-.845.039-.428.418-.742.845-.701.426.039.742.417.701.845-.039.427-.421.741-.845.701z" xmlns="http://www.w3.org/2000/svg"/></g><path d="m22.84 12v18.44c0 6.24-4.32 10.12-10.84 10.12-5.8 0-9.56-3.08-11.2-7.68l6.2-1.8c.68 2.2 2.32 3.72 4.88 3.72 2.72 0 4.36-2 4.36-4.56v-12.44h-12.28v-5.8zm16.594 28.56c-8.52 0-14.8-6.28-14.8-14.56s6.28-14.56 14.68-14.56c8 0 12.64 5.04 13.72 9.4l-6.48 1.6c-.68-2.36-3.36-4.76-7.2-4.76-4.88 0-7.92 3.76-7.92 8.28 0 4.4 3.04 8.36 7.92 8.36 3.84 0 6.52-2.28 7.2-4.68l6.48 1.64c-1.08 4.36-5.72 9.28-13.6 9.28zm54.308-28.56h7l-8.36 28h-7.04l-4.76-16.64-4.8 16.64h-7.04l-8.36-28h7l5.04 18.48 5.16-18.48h5.96l5.16 18.48zm17.674 28.56c-6.64 0-11.2-4.36-11.2-10.72 0-6.12 4.28-10.8 10.8-10.8 6.76 0 10.68 4.68 10.68 10.56 0 .72-.04 1.44-.16 2.12h-15.08c.4 1.92 1.8 3.52 5.08 3.52 2.16 0 3.4-.84 4.08-2.08l5.76 1.68c-1.08 2.52-4.52 5.72-9.96 5.72zm-4.96-12.68h9c-.2-1.84-1.84-3.48-4.48-3.48s-4.24 1.76-4.52 3.48zm17.114 12.12v-29.2h6.4v29.2zm24.074-29.2h6.4v29.2h-6.4v-1.88c-1.4 1.48-3.36 2.44-5.88 2.44-5.52 0-9.92-4.56-9.92-10.76s4.4-10.76 9.92-10.76c2.52 0 4.48.92 5.88 2.44zm-4.72 24.08c2.76 0 4.88-2.04 4.88-5.12 0-3.04-2.12-5.04-4.88-5.04s-4.76 2-4.76 5.04c0 3.08 2 5.12 4.76 5.12zm17.354-17.64c-2.04 0-3.68-1.6-3.68-3.64 0-1.96 1.64-3.56 3.68-3.56s3.68 1.6 3.68 3.56c0 2.04-1.64 3.64-3.68 3.64zm-3.28 22.76v-20.4h6.4v20.4zm21.954-20.96c5.44 0 7.96 3.68 7.96 9.08v11.88h-6.4v-10.6c0-2.68-1.12-4.44-3.64-4.44-2.48 0-3.96 1.96-3.96 5.08v9.96h-6.4v-20.4h6.4v2.12c1.36-1.56 3.4-2.68 6.04-2.68zm25.234.56h6.4v19.64c0 5.72-4.16 9.72-10.72 9.72-5.08 0-8.2-2.28-9.88-5.32l5.52-2c.88 1.36 2.32 2.12 4.52 2.12 2.84 0 4.16-1.92 4.16-4.48v-1.96c-1.48 1.6-3.4 2.44-5.64 2.44-5.8 0-9.96-4.56-9.96-10.36 0-6.2 4.16-10.36 9.96-10.36 2.24 0 4.16.84 5.64 2.44zm-4.52 14.44c2.8 0 4.68-1.84 4.68-4.64s-1.88-4.64-4.68-4.64c-2.84 0-4.76 1.84-4.76 4.64s1.92 4.64 4.76 4.64z" transform="matrix(9.0045086985 0 0 9.0045086985 616.17293629008 1571.93219106011)"/><path d="m13.58 20h-1.96l-1.64-1.72c-1.12 1.14-2.6 1.98-4.48 1.98-2.26 0-4.2-1.56-4.2-3.92 0-1.6.92-3.12 2.86-4.14-.76-.86-1.34-1.68-1.34-2.9 0-2.26 1.74-3.56 3.94-3.56 2.18 0 3.6 1.4 3.98 3.02l-1.4.4c-.36-1.24-1.26-2.02-2.58-2.02-1.38 0-2.42.84-2.42 2.2 0 .84.56 1.56 1.18 2.22l4.34 4.56c.5-.82.86-1.72 1.04-2.6l1.38.36c-.18.98-.64 2.2-1.4 3.3zm-7.96-1.16c1.34 0 2.5-.64 3.38-1.58l-3.9-4.08c-1.56.86-2.26 1.84-2.26 3.1 0 1.32 1.1 2.56 2.78 2.56zm24.64-11.38h-8.1v4.9h7.08v1.42h-7.08v6.22h-1.6v-14h9.7zm5.72 12.8c-2.88 0-5.04-2.26-5.04-5.26s2.16-5.22 5.04-5.22c1.78 0 3.14.8 3.94 2.04v-1.8h1.54v9.98h-1.54v-1.82c-.8 1.28-2.16 2.08-3.94 2.08zm.22-1.4c2.06 0 3.76-1.64 3.76-3.84s-1.7-3.84-3.76-3.84c-2.2 0-3.74 1.62-3.74 3.84 0 2.2 1.54 3.84 3.74 3.84zm13.74-9.08c2.88 0 5.04 2.22 5.04 5.22s-2.16 5.26-5.04 5.26c-1.78 0-3.16-.8-3.94-2.08v1.82h-1.54v-14.6h1.54v6.42c.78-1.24 2.16-2.04 3.94-2.04zm-.22 9.08c2.2 0 3.74-1.64 3.74-3.84 0-2.22-1.54-3.84-3.74-3.84-2.06 0-3.76 1.64-3.76 3.84s1.7 3.84 3.76 3.84zm9.16-7.12c.6-1.3 1.82-2.08 3.58-1.84v1.44c-2.16-.28-3.58.86-3.58 4v4.66h-1.54v-9.98h1.54zm6.38-3.58c-.6 0-1.06-.46-1.06-1.06 0-.56.46-1.02 1.06-1.02s1.06.46 1.06 1.02c0 .6-.46 1.06-1.06 1.06zm-.76 11.84v-9.98h1.54v9.98zm9.18.26c-3 0-5.2-2.28-5.2-5.28 0-2.96 2.2-5.2 5.2-5.2 2.56 0 4.22 1.64 4.62 3.02l-1.44.42c-.32-1.02-1.54-2.06-3.18-2.06-2.24 0-3.68 1.78-3.68 3.86 0 2.02 1.44 3.84 3.68 3.84 1.64 0 2.86-.98 3.18-2l1.44.38c-.4 1.42-2.06 3.02-4.62 3.02zm11.38 0c-2.88 0-5.04-2.26-5.04-5.26s2.16-5.22 5.04-5.22c1.78 0 3.14.8 3.94 2.04v-1.8h1.54v9.98h-1.54v-1.82c-.8 1.28-2.16 2.08-3.94 2.08zm.22-1.4c2.06 0 3.76-1.64 3.76-3.84s-1.7-3.84-3.76-3.84c-2.2 0-3.74 1.62-3.74 3.84 0 2.2 1.54 3.84 3.74 3.84zm13.74-.48.42 1.32c-.7.3-1.34.44-2.08.44-2 0-2.92-1.26-2.92-3.18v-5.54h-1.98v-1.4h1.98v-3.44h1.54v3.44h3.42v1.4h-3.42v5.54c0 1.12.52 1.76 1.62 1.76.52 0 .9-.08 1.42-.34zm3.54-10.22c-.6 0-1.06-.46-1.06-1.06 0-.56.46-1.02 1.06-1.02s1.06.46 1.06 1.02c0 .6-.46 1.06-1.06 1.06zm-.76 11.84v-9.98h1.54v9.98zm9.26.26c-3.02 0-5.28-2.28-5.28-5.26s2.26-5.22 5.28-5.22 5.26 2.24 5.26 5.22-2.24 5.26-5.26 5.26zm0-1.42c2.14 0 3.74-1.64 3.74-3.82s-1.6-3.84-3.74-3.84c-2.16 0-3.78 1.66-3.78 3.84s1.62 3.82 3.78 3.82zm12.86-9.06c2.48 0 4 1.62 4 4.36v5.86h-1.54v-5.64c0-1.94-.98-3.14-2.8-3.14-2 0-3.36 1.52-3.36 3.76v5.02h-1.54v-9.98h1.54v1.76c.7-1.14 1.96-2 3.7-2z" transform="matrix(11.93504915132 0 0 11.93504915132 796.7629675753 2041.80785252343)"/></g></svg>