<?xml version="1.0" encoding="utf-8"?>
<!-- Generator: Adobe Illustrator 19.2.1, SVG Export Plug-In . SVG Version: 6.00 Build 0)  -->
<svg version="1.1" id="layer" xmlns="http://www.w3.org/2000/svg" xmlns:xlink="http://www.w3.org/1999/xlink" x="0px" y="0px"
	 viewBox="0 0 652 652" style="enable-background:new 0 0 652 652;" xml:space="preserve">
<style type="text/css">
	.st0{fill:#D2051E;}
	.st1{fill:#FFFFFF;}
</style>
<g id="Logo">
	<path id="Background" class="st0" d="M21.6,250h600v141.4h-600V250z"/>
	<path id="Hilti" class="st1" d="M261.6,357.5h-40.2v-73.6h40.2V357.5z M581.4,283.9h-40.2v73.6h40.2V283.9z M61.7,357.5h40.2v-19.3
		h70.2v19.3h40.2v-73.6h-40.2v19.3h-70.2v-19.3H61.7L61.7,357.5L61.7,357.5z M271,357.5h124.3v-33.9h-84.2v-39.7H271L271,357.5
		L271,357.5z M363.4,317.8h64.2v39.7h40.2v-39.7H532v-33.9H363.4L363.4,317.8L363.4,317.8z"/>
</g>
</svg>
