<?xml version="1.0" encoding="utf-8"?>
<!-- Generator: Adobe Illustrator 19.2.1, SVG Export Plug-In . SVG Version: 6.00 Build 0)  -->
<svg version="1.1" id="layer" xmlns="http://www.w3.org/2000/svg" xmlns:xlink="http://www.w3.org/1999/xlink" x="0px" y="0px"
	 viewBox="0 0 652 652" style="enable-background:new 0 0 652 652;" xml:space="preserve">
<style type="text/css">
	.st0{fill:#B21124;}
	.st1{fill:#FFFFFF;}
	.st2{fill:#231815;}
</style>
<path d="M561.1,275.1c5.9,0,11.2,4.3,11.2,10.9c0,6.7-5.3,10.9-11.2,10.9c-5.9,0-11.2-4.3-11.2-10.9
	C549.8,279.4,555.1,275.1,561.1,275.1 M561.1,294.6c4.5,0,8.2-3.6,8.2-8.6c0-5-3.7-8.6-8.2-8.6c-4.6,0-8.2,3.6-8.2,8.6
	C552.8,291,556.5,294.6,561.1,294.6 M556.7,279.9h4.6c3.1,0,4.8,1,4.8,3.6c0,2.3-1.4,3.1-3.2,3.3l3.3,5.4h-2.5l-3-5.2h-1.5v5.2h-2.4
	V279.9z M559.1,285h2.2c1.4,0,2.4-0.2,2.4-1.7c0-1.3-1.4-1.5-2.5-1.5h-2V285z"/>
<path class="st0" d="M600.2,305.8h-60.1c0,1.6,0,2.2,0,9.3c0,7.4-7.2,17.2-18.7,17.2c-7.1,0-412.8,0-420,0v69.2
	c0,10.7,9,19.5,20,19.5h478.8c11,0,20-8.7,20-19.5v-76.2C620.2,314.5,611.2,305.8,600.2,305.8"/>
<path d="M541.4,241.8c0-10.6-8.9-19.2-19.9-19.2H40.1c-11,0-19.9,8.6-19.9,19.2v72.7c0,10.6,8.9,19.2,19.9,19.2h0.8h480.6
	c11,0,19.9-8.6,19.9-19.2V241.8z"/>
<polygon class="st1" points="101.2,315.9 50.5,315.9 50.5,241.8 70.3,241.8 70.3,298.7 101.2,298.7 "/>
<rect x="110.3" y="241.8" class="st1" width="19.8" height="74.1"/>
<polygon class="st1" points="215.4,315.9 181.7,315.9 160.8,259 160,259 161.2,315.9 141.4,315.9 141.4,241.8 174.8,241.8 
	196.1,298.7 196.9,298.7 195.7,241.8 215.4,241.8 "/>
<path class="st1" d="M291.7,290c0,8.1-0.1,15.4-6.8,21c-6.7,5.5-14.9,5.4-23.5,5.4c-20.1,0-34.9-1-34.9-28v-19.2
	c0-24.5,13.1-28,34.9-28c20.4,0,29.8,2.1,30.2,24.3v2.9h-20.4v-2.9c-0.7-6.6-5.3-7.1-12-7.1c-11.3,0-12.4,3.5-12.4,14V284
	c0,11.1,0.5,15.3,12.4,15.3c8.2,0,12.1-0.6,12.1-9.3v-2.2h20.4V290z"/>
<path class="st1" d="M367.6,289.3c0,22.8-14.2,27.2-34.3,27.2c-20,0-34.3-4.3-34.3-27.2v-20.9c0-22.8,14.2-27.2,34.3-27.2
	c20.1,0,34.3,4.3,34.3,27.2V289.3z"/>
<polygon class="st1" points="427.2,315.9 375.7,315.9 375.7,241.8 395.8,241.8 395.8,298.7 427.2,298.7 "/>
<polygon class="st1" points="509.4,315.9 475.7,315.9 454.8,259 454,259 455.2,315.9 435.4,315.9 435.4,241.8 468.8,241.8 
	490.1,298.7 490.9,298.7 489.7,241.8 509.4,241.8 "/>
<path class="st2" d="M333.3,258.4c-10.3,0-13.6,1.1-13.9,12v16.7c0.3,11.1,3.6,12.1,13.9,12.1c10.3,0,13.9-1.1,13.9-12.1v-16.7
	C347.2,259.5,343.6,258.4,333.3,258.4"/>
<polygon class="st1" points="206.9,403.2 162.2,403.2 162.2,348.7 206.4,348.7 206.4,360.6 178.5,360.6 178.5,370.6 204.7,370.6 
	204.7,380.7 178.5,380.7 178.5,391.3 206.9,391.3 "/>
<polygon class="st1" points="257.7,403.2 215.6,403.2 215.6,348.7 232,348.7 232,390.6 257.7,390.6 "/>
<polygon class="st1" points="310.1,403.2 265.4,403.2 265.4,348.7 309.5,348.7 309.5,360.6 281.7,360.6 281.7,370.6 307.8,370.6 
	307.8,380.7 281.7,380.7 281.7,391.3 310.1,391.3 "/>
<path class="st1" d="M371.1,384.2c0,6-0.1,11.3-5.7,15.5c-5.6,4.1-12.5,4-19.6,4c-16.8,0-29.1-0.7-29.1-20.7v-14.1
	c0-18,11-20.7,29.1-20.7c17,0,24.9,1.5,25.2,17.9v2.1h-17v-2.1c-0.6-4.9-4.4-5.2-10.1-5.2c-9.4,0-10.3,2.6-10.3,10.3v8.5
	c0,8.2,0.4,11.3,10.3,11.3c6.8,0,10.1-0.4,10.1-6.8v-1.6h17V384.2z"/>
<polygon class="st1" points="422.4,361.3 406.1,361.3 406.1,403.2 389.9,403.2 389.9,361.3 374.4,361.3 374.4,348.7 422.4,348.7 "/>
<path class="st1" d="M478.5,392.3v11h-15.8v-7.6c0.2-4.1-1.7-6.8-6.5-6.8H444v14.5h-15.8v-54.5h30.5c13.7,0.2,20.4,2.9,20.4,16.5
	c0,9.1,0,14.4-11.2,16.8v0.6C474.3,382.8,478.5,386.1,478.5,392.3"/>
<rect x="488" y="348.7" class="st1" width="17" height="54.5"/>
<path class="st1" d="M566.7,384.2c0,6-0.1,11.3-5.5,15.5c-5.5,4.1-12.1,4-19.1,4c-16.3,0-28.3-0.7-28.3-20.7v-14.1
	c0-18,10.6-20.7,28.3-20.7c16.5,0,24.2,1.5,24.5,17.9v2.1h-16.5v-2.1c-0.6-4.9-4.3-5.2-9.8-5.2c-9.1,0-10,2.6-10,10.3v8.5
	c0,8.2,0.4,11.3,10,11.3c6.7,0,9.9-0.4,9.9-6.8v-1.6h16.5V384.2z"/>
<path class="st0" d="M456.2,361.3H444v14.8h12.2c6.8,0,6.6-2.3,6.6-8.5C462.8,362.7,461.4,361.3,456.2,361.3"/>
</svg>
