<?xml version="1.0" encoding="UTF-8" standalone="no"?>
<!-- Created with Inkscape (http://www.inkscape.org/) -->

<svg
   xmlns:dc="http://purl.org/dc/elements/1.1/"
   xmlns:cc="http://creativecommons.org/ns#"
   xmlns:rdf="http://www.w3.org/1999/02/22-rdf-syntax-ns#"
   xmlns:svg="http://www.w3.org/2000/svg"
   xmlns="http://www.w3.org/2000/svg"
   xmlns:sodipodi="http://sodipodi.sourceforge.net/DTD/sodipodi-0.dtd"
   xmlns:inkscape="http://www.inkscape.org/namespaces/inkscape"
   width="185.65852"
   height="76.388"
   viewBox="0 0 49.12215 20.210992"
   version="1.1"
   id="svg12619"
   inkscape:version="0.92.0 r15299"
   sodipodi:docname="miller.svg">
  <defs
     id="defs12613">
    <clipPath
       id="clipPath12288"
       clipPathUnits="userSpaceOnUse">
      <path
         inkscape:connector-curvature="0"
         id="path12286"
         d="m 49.32,673.041 h 162.847 v 64.992 H 49.32 Z" />
    </clipPath>
    <clipPath
       id="clipPath12252"
       clipPathUnits="userSpaceOnUse">
      <path
         inkscape:connector-curvature="0"
         id="path12250"
         d="m 49.32,673.041 h 162.847 v 64.992 H 49.32 Z" />
    </clipPath>
  </defs>
  <sodipodi:namedview
     id="base"
     pagecolor="#ffffff"
     bordercolor="#666666"
     borderopacity="1.0"
     inkscape:pageopacity="0.0"
     inkscape:pageshadow="2"
     inkscape:zoom="4.8576149"
     inkscape:cx="92.329262"
     inkscape:cy="37.693999"
     inkscape:document-units="mm"
     inkscape:current-layer="layer1"
     showgrid="false"
     fit-margin-top="0"
     fit-margin-left="0"
     fit-margin-right="0"
     fit-margin-bottom="0"
     units="px"
     inkscape:window-width="1280"
     inkscape:window-height="744"
     inkscape:window-x="-4"
     inkscape:window-y="-4"
     inkscape:window-maximized="1" />
  <metadata
     id="metadata12616">
    <rdf:RDF>
      <cc:Work
         rdf:about="">
        <dc:format>image/svg+xml</dc:format>
        <dc:type
           rdf:resource="http://purl.org/dc/dcmitype/StillImage" />
        <dc:title></dc:title>
      </cc:Work>
    </rdf:RDF>
  </metadata>
  <g
     inkscape:label="Layer 1"
     inkscape:groupmode="layer"
     id="layer1"
     transform="translate(117.92678,46.591495)">
    <g
       id="g12849"
       transform="translate(0.13229151,-0.13229284)">
      <path
         d="m -117.92678,-36.35353 c 0,-5.507919 4.46511,-9.97338 9.97338,-9.97338 5.50792,0 9.973028,4.465461 9.973028,9.97338 0,5.507919 -4.465108,9.973028 -9.973028,9.973028 -5.50827,0 -9.97338,-4.465109 -9.97338,-9.973028"
         style="fill:#006bae;fill-opacity:1;fill-rule:nonzero;stroke:none;stroke-width:0.35277778"
         id="path12256"
         inkscape:connector-curvature="0" />
      <path
         d="m -103.74717,-32.252495 4.761089,-8.202083 h -3.645959 l -4.76144,8.202083 z"
         style="fill:#ffffff;fill-opacity:1;fill-rule:nonzero;stroke:none;stroke-width:0.35277778"
         id="path12260"
         inkscape:connector-curvature="0" />
      <path
         d="m -112.10722,-32.252495 h 3.64631 l 4.76109,-8.202083 h -3.64631 z"
         style="fill:#ffffff;fill-opacity:1;fill-rule:nonzero;stroke:none;stroke-width:0.35277778"
         id="path12264"
         inkscape:connector-curvature="0" />
      <path
         d="m -113.17476,-32.252495 4.76109,-8.202083 h -3.64631 l -4.76109,8.202083 z"
         style="fill:#ffffff;fill-opacity:1;fill-rule:nonzero;stroke:none;stroke-width:0.35277778"
         id="path12268"
         inkscape:connector-curvature="0" />
      <path
         inkscape:connector-curvature="0"
         id="path12270"
         style="fill:#000000;fill-opacity:1;fill-rule:nonzero;stroke:none;stroke-width:0.35277778"
         d="m -82.54599,-40.452213 h -1.900769 v 8.252179 h 1.900769 z" />
      <path
         inkscape:connector-curvature="0"
         id="path12272"
         style="fill:#000000;fill-opacity:1;fill-rule:nonzero;stroke:none;stroke-width:0.35277778"
         d="m -80.170388,-40.452213 h -1.900413 v 8.252179 h 1.900413 z" />
      <path
         inkscape:connector-curvature="0"
         id="path12274"
         style="fill:#000000;fill-opacity:1;fill-rule:nonzero;stroke:none;stroke-width:0.35277778"
         d="m -84.921599,-40.452213 h -1.900409 v 1.47532 h 1.900409 z" />
      <path
         inkscape:connector-curvature="0"
         id="path12276"
         style="fill:#000000;fill-opacity:1;fill-rule:nonzero;stroke:none;stroke-width:0.35277778"
         d="m -84.921599,-32.200034 h -1.900409 v -6.264269 h 1.900409 z" />
      <path
         d="m -91.567601,-32.199965 h 0.788106 l 1.644297,-4.8387 v 4.8387 h 1.900414 v -8.252178 h -2.738261 l -1.637948,4.776259 -1.637947,-4.776259 h -2.738261 v 8.252178 h 1.900414 v -4.8387 l 1.643944,4.8387 h 0.788106 z"
         style="fill:#000000;fill-opacity:1;fill-rule:nonzero;stroke:none;stroke-width:0.35277778"
         id="path12280"
         inkscape:connector-curvature="0" />
      <path
         d="m -71.20521,-36.063546 v 3.863622 h -1.900061 v -6.264275 h 1.900061 v 0.675217 c 0.513292,-0.625122 0.950736,-0.675217 1.626306,-0.675217 v 1.713089 c -0.800453,-0.03739 -1.413228,0.162631 -1.626306,0.687564"
         style="fill:#000000;fill-opacity:1;fill-rule:nonzero;stroke:none;stroke-width:0.35277778"
         id="path12292"
         inkscape:connector-curvature="0" />
      <path
         d="m -75.244727,-36.237748 c -0.277283,-0.500592 -0.811742,-0.839964 -1.424517,-0.839964 -0.613127,0 -1.146527,0.339372 -1.424163,0.839964 z m 1.671108,2.00025 c -0.484011,1.23578 -1.688041,2.111022 -3.095625,2.111022 -1.835855,0 -3.324577,-1.488369 -3.324577,-3.324225 0,-1.836208 1.488722,-3.324577 3.324577,-3.324577 1.836561,0 3.324578,1.488369 3.324578,3.324577 0,0.229306 -0.02328,0.453672 -0.06809,0.669925 l -4.736747,0.0049 c 0.255764,0.56127 0.82303,0.951795 1.480255,0.951795 0.418042,0 0.798336,-0.156987 1.086203,-0.415573 z"
         style="fill:#000000;fill-opacity:1;fill-rule:nonzero;stroke:none;stroke-width:0.35277778"
         id="path12296"
         inkscape:connector-curvature="0" />
      <path
         d="m -69.760656,-32.890346 c 0.101247,0 0.191558,-0.0074 0.191558,-0.128411 0,-0.09737 -0.08855,-0.115358 -0.171802,-0.115358 h -0.162278 v 0.243769 z m -0.142522,0.442383 h -0.118886 v -0.787752 h 0.299155 c 0.186267,0 0.278695,0.06879 0.278695,0.224013 0,0.141112 -0.08855,0.202142 -0.204611,0.216959 l 0.224013,0.34678 h -0.13335 l -0.208138,-0.341489 h -0.136878 z m 0.144286,0.174978 c 0.30868,0 0.553155,-0.241653 0.553155,-0.570442 0,-0.323497 -0.244475,-0.567266 -0.553155,-0.567266 -0.312208,0 -0.556683,0.243769 -0.556683,0.567266 0,0.328789 0.244475,0.570442 0.556683,0.570442 m -0.693914,-0.570442 c 0,-0.392288 0.318206,-0.681213 0.693914,-0.681213 0.37218,0 0.68968,0.288925 0.68968,0.681213 0,0.395464 -0.3175,0.684389 -0.68968,0.684389 -0.375708,0 -0.693914,-0.288925 -0.693914,-0.684389"
         style="fill:#000000;fill-opacity:1;fill-rule:nonzero;stroke:none;stroke-width:0.35277778"
         id="path12300"
         inkscape:connector-curvature="0" />
    </g>
  </g>
</svg>
